<svg width="201" height="40" viewBox="0 0 201 40" fill="none" xmlns="http://www.w3.org/2000/svg">
<path d="M180.9 0H20.1C8.99908 0 0 8.9543 0 20C0 31.0457 8.99908 40 20.1 40H180.9C192.001 40 201 31.0457 201 20C201 8.9543 192.001 0 180.9 0Z" fill="white"/>
<path d="M64.9176 17.6562H61.1847C61.1165 17.1733 60.9773 16.7443 60.767 16.3693C60.5568 15.9886 60.2869 15.6648 59.9574 15.3977C59.6278 15.1307 59.2472 14.9261 58.8153 14.7841C58.3892 14.642 57.9261 14.571 57.4261 14.571C56.5227 14.571 55.7358 14.7955 55.0653 15.2443C54.3949 15.6875 53.875 16.3352 53.5057 17.1875C53.1364 18.0341 52.9517 19.0625 52.9517 20.2727C52.9517 21.517 53.1364 22.5625 53.5057 23.4091C53.8807 24.2557 54.4034 24.8949 55.0739 25.3267C55.7443 25.7585 56.5199 25.9744 57.4006 25.9744C57.8949 25.9744 58.3523 25.9091 58.7727 25.7784C59.1989 25.6477 59.5767 25.4574 59.9062 25.2074C60.2358 24.9517 60.5085 24.642 60.7244 24.2784C60.946 23.9148 61.0994 23.5 61.1847 23.0341L64.9176 23.0511C64.821 23.8523 64.5795 24.625 64.1932 25.3693C63.8125 26.108 63.2983 26.7699 62.6506 27.3551C62.0085 27.9347 61.2415 28.3949 60.3494 28.7358C59.4631 29.071 58.4602 29.2386 57.3409 29.2386C55.7841 29.2386 54.392 28.8864 53.1648 28.1818C51.9432 27.4773 50.9773 26.4574 50.267 25.1222C49.5625 23.7869 49.2102 22.1705 49.2102 20.2727C49.2102 18.3693 49.5682 16.75 50.2841 15.4148C51 14.0795 51.9716 13.0625 53.1989 12.3636C54.4261 11.6591 55.8068 11.3068 57.3409 11.3068C58.3523 11.3068 59.2898 11.4489 60.1534 11.733C61.0227 12.017 61.7926 12.4318 62.4631 12.9773C63.1335 13.517 63.679 14.179 64.0994 14.9631C64.5256 15.7472 64.7983 16.6449 64.9176 17.6562ZM80.6776 21.7273C80.6776 23.3134 80.3769 24.6629 79.7756 25.7756C79.179 26.8883 78.3646 27.7382 77.3324 28.3253C76.3049 28.9077 75.1496 29.1989 73.8665 29.1989C72.5739 29.1989 71.4138 28.9053 70.3864 28.3182C69.3589 27.7311 68.5469 26.8812 67.9503 25.7685C67.3537 24.6558 67.0554 23.3087 67.0554 21.7273C67.0554 20.1411 67.3537 18.7917 67.9503 17.679C68.5469 16.5663 69.3589 15.7187 70.3864 15.1364C71.4138 14.5492 72.5739 14.2557 73.8665 14.2557C75.1496 14.2557 76.3049 14.5492 77.3324 15.1364C78.3646 15.7187 79.179 16.5663 79.7756 17.679C80.3769 18.7917 80.6776 20.1411 80.6776 21.7273ZM77.5597 21.7273C77.5597 20.6998 77.4058 19.8333 77.098 19.1278C76.795 18.4223 76.3665 17.8873 75.8125 17.5227C75.2585 17.1581 74.6098 16.9759 73.8665 16.9759C73.1231 16.9759 72.4744 17.1581 71.9205 17.5227C71.3665 17.8873 70.9356 18.4223 70.6278 19.1278C70.3248 19.8333 70.1733 20.6998 70.1733 21.7273C70.1733 22.7547 70.3248 23.6212 70.6278 24.3267C70.9356 25.0322 71.3665 25.5672 71.9205 25.9318C72.4744 26.2964 73.1231 26.4787 73.8665 26.4787C74.6098 26.4787 75.2585 26.2964 75.8125 25.9318C76.3665 25.5672 76.795 25.0322 77.098 24.3267C77.4058 23.6212 77.5597 22.7547 77.5597 21.7273ZM88.1119 29H82.9556V14.4545H88.1545C89.6175 14.4545 90.877 14.7457 91.9329 15.3281C92.9888 15.9058 93.8008 16.7367 94.369 17.821C94.9419 18.9053 95.2283 20.2027 95.2283 21.7131C95.2283 23.2282 94.9419 24.5303 94.369 25.6193C93.8008 26.7083 92.984 27.544 91.9187 28.1264C90.8581 28.7088 89.5891 29 88.1119 29ZM86.0309 26.3651H87.984C88.8931 26.3651 89.6578 26.2041 90.2781 25.8821C90.9031 25.5554 91.3718 25.0511 91.6843 24.3693C92.0015 23.6828 92.1602 22.7973 92.1602 21.7131C92.1602 20.6383 92.0015 19.7599 91.6843 19.0781C91.3718 18.3963 90.9054 17.8944 90.2852 17.5724C89.6649 17.2505 88.9002 17.0895 87.9911 17.0895H86.0309V26.3651ZM97.5064 29V14.4545H107.308V16.9901H100.582V20.456H106.803V22.9915H100.582V26.4645H107.336V29H97.5064Z" fill="black"/>
<path d="M109.752 29V14.4545H119.383V16.9901H112.828V20.456H118.744V22.9915H112.828V29H109.752ZM134.818 21.7273C134.818 23.3134 134.518 24.6629 133.916 25.7756C133.32 26.8883 132.505 27.7382 131.473 28.3253C130.446 28.9077 129.29 29.1989 128.007 29.1989C126.714 29.1989 125.554 28.9053 124.527 28.3182C123.5 27.7311 122.688 26.8812 122.091 25.7685C121.494 24.6558 121.196 23.3087 121.196 21.7273C121.196 20.1411 121.494 18.7917 122.091 17.679C122.688 16.5663 123.5 15.7187 124.527 15.1364C125.554 14.5492 126.714 14.2557 128.007 14.2557C129.29 14.2557 130.446 14.5492 131.473 15.1364C132.505 15.7187 133.32 16.5663 133.916 17.679C134.518 18.7917 134.818 20.1411 134.818 21.7273ZM131.7 21.7273C131.7 20.6998 131.546 19.8333 131.239 19.1278C130.936 18.4223 130.507 17.8873 129.953 17.5227C129.399 17.1581 128.75 16.9759 128.007 16.9759C127.264 16.9759 126.615 17.1581 126.061 17.5227C125.507 17.8873 125.076 18.4223 124.768 19.1278C124.465 19.8333 124.314 20.6998 124.314 21.7273C124.314 22.7547 124.465 23.6212 124.768 24.3267C125.076 25.0322 125.507 25.5672 126.061 25.9318C126.615 26.2964 127.264 26.4787 128.007 26.4787C128.75 26.4787 129.399 26.2964 129.953 25.9318C130.507 25.5672 130.936 25.0322 131.239 24.3267C131.546 23.6212 131.7 22.7547 131.7 21.7273ZM137.096 29V14.4545H142.835C143.933 14.4545 144.871 14.651 145.647 15.044C146.429 15.4323 147.023 15.9839 147.43 16.6989C147.842 17.4091 148.048 18.2448 148.048 19.206C148.048 20.1719 147.84 21.0028 147.423 21.6989C147.006 22.3902 146.403 22.9205 145.612 23.2898C144.826 23.6591 143.874 23.8438 142.757 23.8438H138.914V21.3722H142.26C142.847 21.3722 143.334 21.2917 143.723 21.1307C144.111 20.9697 144.4 20.7282 144.589 20.4062C144.783 20.0843 144.88 19.6842 144.88 19.206C144.88 18.723 144.783 18.3158 144.589 17.9844C144.4 17.6529 144.109 17.402 143.716 17.2315C143.327 17.0563 142.837 16.9688 142.245 16.9688H140.172V29H137.096ZM144.951 22.3807L148.566 29H145.172L141.635 22.3807H144.951ZM163.055 19.5469H159.944C159.887 19.1444 159.771 18.7869 159.596 18.4744C159.421 18.1572 159.196 17.8873 158.922 17.6648C158.647 17.4422 158.33 17.2718 157.97 17.1534C157.615 17.035 157.229 16.9759 156.812 16.9759C156.059 16.9759 155.404 17.1629 154.845 17.5369C154.286 17.9062 153.853 18.446 153.545 19.1562C153.237 19.8617 153.083 20.7187 153.083 21.7273C153.083 22.7642 153.237 23.6354 153.545 24.3409C153.858 25.0464 154.293 25.5791 154.852 25.9389C155.411 26.2988 156.057 26.4787 156.791 26.4787C157.203 26.4787 157.584 26.4242 157.934 26.3153C158.289 26.2064 158.604 26.0478 158.879 25.8395C159.154 25.6264 159.381 25.3684 159.561 25.0653C159.745 24.7623 159.873 24.4167 159.944 24.0284L163.055 24.0426C162.975 24.7102 162.773 25.3542 162.451 25.9744C162.134 26.59 161.706 27.1416 161.166 27.6293C160.631 28.1122 159.992 28.4957 159.248 28.7798C158.51 29.0592 157.674 29.1989 156.741 29.1989C155.444 29.1989 154.284 28.9053 153.261 28.3182C152.243 27.7311 151.438 26.8812 150.846 25.7685C150.259 24.6558 149.966 23.3087 149.966 21.7273C149.966 20.1411 150.264 18.7917 150.86 17.679C151.457 16.5663 152.267 15.7187 153.289 15.1364C154.312 14.5492 155.463 14.2557 156.741 14.2557C157.584 14.2557 158.365 14.3741 159.085 14.6108C159.809 14.8475 160.451 15.1932 161.01 15.6477C161.568 16.0975 162.023 16.6491 162.373 17.3026C162.728 17.956 162.956 18.7041 163.055 19.5469ZM165.26 29V14.4545H175.061V16.9901H168.336V20.456H174.557V22.9915H168.336V26.4645H175.09V29H165.26ZM185.397 18.6378C185.34 18.0649 185.096 17.6198 184.665 17.3026C184.235 16.9853 183.65 16.8267 182.911 16.8267C182.409 16.8267 181.986 16.8977 181.64 17.0398C181.294 17.1771 181.029 17.3688 180.844 17.6151C180.665 17.8613 180.575 18.1406 180.575 18.4531C180.565 18.7135 180.62 18.9408 180.738 19.1349C180.861 19.3291 181.029 19.4972 181.242 19.6392C181.455 19.7765 181.701 19.8973 181.981 20.0014C182.26 20.1009 182.558 20.1861 182.876 20.2571L184.183 20.5696C184.817 20.7116 185.399 20.901 185.93 21.1378C186.46 21.3745 186.919 21.6657 187.308 22.0114C187.696 22.357 187.996 22.7642 188.21 23.233C188.427 23.7017 188.539 24.2391 188.543 24.8452C188.539 25.7353 188.311 26.5071 187.862 27.1605C187.416 27.8092 186.772 28.3134 185.93 28.6733C185.092 29.0284 184.081 29.206 182.897 29.206C181.723 29.206 180.7 29.026 179.829 28.6662C178.962 28.3063 178.285 27.7737 177.798 27.0682C177.315 26.358 177.061 25.4796 177.038 24.4332H180.013C180.047 24.9209 180.186 25.3281 180.433 25.6548C180.683 25.9768 181.017 26.2206 181.434 26.3864C181.855 26.5473 182.331 26.6278 182.862 26.6278C183.382 26.6278 183.835 26.5521 184.218 26.4006C184.606 26.2491 184.907 26.0384 185.12 25.7685C185.333 25.4986 185.44 25.1884 185.44 24.8381C185.44 24.5114 185.343 24.2367 185.148 24.0142C184.959 23.7917 184.68 23.6023 184.31 23.446C183.946 23.2898 183.498 23.1477 182.968 23.0199L181.384 22.6222C180.158 22.3239 179.19 21.8575 178.479 21.223C177.769 20.5885 177.416 19.7339 177.421 18.6591C177.416 17.7784 177.651 17.009 178.124 16.3509C178.603 15.6927 179.258 15.179 180.092 14.8097C180.925 14.4403 181.872 14.2557 182.933 14.2557C184.012 14.2557 184.954 14.4403 185.759 14.8097C186.569 15.179 187.199 15.6927 187.648 16.3509C188.098 17.009 188.33 17.7713 188.344 18.6378H185.397Z" fill="#005FAC"/>
<path d="M38 27.5V20C38 19.6022 37.842 19.2206 37.5607 18.9393C37.2794 18.658 36.8978 18.5 36.5 18.5H33.5C33.1022 18.5 32.7206 18.658 32.4393 18.9393C32.158 19.2206 32 19.6022 32 20V27.5C32 27.8978 32.158 28.2794 32.4393 28.5607C32.7206 28.842 33.1022 29 33.5 29H36.5C36.8978 29 37.2794 28.842 37.5607 28.5607C37.842 28.2794 38 27.8978 38 27.5Z" fill="#F44336"/>
<path d="M27.5 29C27.8978 29 28.2794 28.842 28.5607 28.5607C28.842 28.2794 29 27.8978 29 27.5V12.5C29 12.1022 28.842 11.7206 28.5607 11.4393C28.2794 11.158 27.8978 11 27.5 11H24.5C23.673 11 23 11.672 23 12.5V27.5C23 28.328 23.673 29 24.5 29H27.5Z" fill="#2196F3"/>
<path d="M14 27.5C14 28.328 14.673 29 15.5 29H18.5C18.8978 29 19.2794 28.842 19.5607 28.5607C19.842 28.2794 20 27.8978 20 27.5V17C20 16.6022 19.842 16.2206 19.5607 15.9393C19.2794 15.658 18.8978 15.5 18.5 15.5H15.5C14.673 15.5 14 16.172 14 17V27.5Z" fill="#FFC107"/>
</svg>
